<?xml version="1.0" encoding="utf-8"?>
<!-- Generator: Adobe Illustrator 19.2.1, SVG Export Plug-In . SVG Version: 6.00 Build 0)  -->
<svg version="1.1" id="Слой_1" xmlns="http://www.w3.org/2000/svg" xmlns:xlink="http://www.w3.org/1999/xlink" x="0px" y="0px"
	 viewBox="0 0 150 89.5" style="enable-background:new 0 0 150 89.5;" xml:space="preserve">
<style type="text/css">
	.st0{fill:#0D0F0F;}
</style>
<g>
	<path class="st0" d="M139.7,75c-0.2-0.4-0.3-0.6-0.5-0.9c-2.4-4.2-6.9-9.5-13.5-15.6l-0.1-0.1l-0.1-0.1l-0.1-0.1h-0.1
		c-3-2.9-4.9-4.8-5.7-5.8c-1.5-1.9-1.8-3.8-1-5.7c0.6-1.5,2.7-4.6,6.4-9.3c1.9-2.5,3.5-4.5,4.6-6c8.2-10.9,11.7-17.8,10.6-20.8
		l-0.4-0.7c-0.3-0.4-1-0.8-2.2-1.2c-1.2-0.4-2.7-0.4-4.5-0.2l-20.4,0.1c-0.3-0.1-0.8-0.1-1.4,0c-0.6,0.1-0.9,0.2-0.9,0.2L110,9.1
		l-0.3,0.2c-0.2,0.1-0.5,0.4-0.8,0.7c-0.3,0.4-0.5,0.8-0.7,1.2c-2.2,5.7-4.7,11-7.6,15.9c-1.7,2.9-3.4,5.5-4.8,7.6
		c-1.5,2.1-2.7,3.7-3.7,4.7c-1,1-1.9,1.8-2.7,2.4c-0.8,0.6-1.4,0.9-1.8,0.8c-0.4-0.1-0.8-0.2-1.2-0.3c-0.7-0.4-1.2-1-1.6-1.7
		C84.4,40,84.1,39.1,84,38c-0.1-1.1-0.2-2.1-0.2-2.9c0-0.8,0-1.9,0-3.4c0-1.5,0.1-2.5,0.1-3c0-1.8,0-3.7,0.1-5.8
		c0.1-2.1,0.1-3.8,0.2-5c0-1.2,0.1-2.5,0.1-3.9s-0.1-2.4-0.2-3.2c-0.2-0.8-0.4-1.5-0.7-2.3c-0.3-0.7-0.8-1.3-1.5-1.7
		c-0.6-0.4-1.4-0.7-2.4-1C76.9,5.3,73.7,5,69.8,5C61,4.9,55.4,5.4,52.9,6.7c-1,0.5-1.9,1.2-2.7,2.1c-0.8,1-1,1.6-0.4,1.7
		c2.8,0.4,4.8,1.4,6,3l0.4,0.9c0.3,0.6,0.7,1.7,1,3.3c0.3,1.6,0.5,3.3,0.6,5.2c0.2,3.4,0.2,6.4,0,8.9c-0.2,2.5-0.5,4.4-0.7,5.7
		c-0.2,1.4-0.5,2.5-1,3.3c-0.4,0.8-0.7,1.4-0.9,1.6c-0.1,0.2-0.3,0.3-0.4,0.4c-0.6,0.2-1.3,0.4-1.9,0.4c-0.7,0-1.5-0.3-2.4-1
		c-0.9-0.7-1.9-1.6-2.9-2.7c-1-1.2-2.2-2.8-3.4-4.9c-1.3-2.1-2.6-4.5-4-7.4L39.3,25c-0.7-1.3-1.7-3.2-2.9-5.8
		c-1.2-2.5-2.3-5-3.3-7.3c-0.4-1-0.9-1.7-1.7-2.3l-0.4-0.2C30.9,9.2,30.5,9,30,8.8c-0.5-0.2-1.1-0.4-1.6-0.5L8.9,8.5
		c-2,0-3.3,0.4-4,1.3l-0.3,0.4c-0.1,0.2-0.2,0.6-0.2,1.1c0,0.5,0.1,1.2,0.4,1.9c2.8,6.7,5.9,13.1,9.2,19.3s6.2,11.2,8.7,14.9
		c2.5,3.8,5,7.3,7.5,10.7c2.5,3.4,4.2,5.5,5.1,6.4c0.8,0.9,1.5,1.7,1.9,2.1l1.8,1.7c1.1,1.1,2.8,2.5,5,4.1c2.2,1.6,4.6,3.1,7.3,4.7
		c2.7,1.5,5.8,2.8,9.3,3.8c3.5,1,7,1.4,10.3,1.2h8.1c1.7-0.1,2.9-0.7,3.8-1.6l0.3-0.4c0.2-0.3,0.4-0.7,0.5-1.3
		c0.2-0.6,0.2-1.2,0.2-1.9c0-2,0.1-3.9,0.5-5.5c0.4-1.6,0.8-2.9,1.2-3.7c0.4-0.8,1-1.5,1.5-2.1c0.6-0.6,1-0.9,1.2-1
		c0.2-0.1,0.4-0.2,0.6-0.2c1.1-0.4,2.5,0,4,1.1c1.5,1.1,3,2.5,4.3,4.1c1.3,1.6,3,3.5,4.8,5.5c1.9,2,3.5,3.5,5,4.5l1.4,0.8
		c0.9,0.6,2.2,1.1,3.7,1.6c1.5,0.5,2.8,0.6,4,0.4l18.1-0.3c1.8,0,3.2-0.3,4.2-0.9c1-0.6,1.6-1.2,1.8-1.9c0.2-0.7,0.2-1.5,0-2.4
		C140,76,139.8,75.4,139.7,75z"/>
</g>
</svg>
